<svg width="40" height="40" viewBox="0 0 40 40" fill="none" xmlns="http://www.w3.org/2000/svg">
<path d="M35.0086 18.3327V26.6695C35.0086 31.2738 31.2761 35.0063 26.6718 35.0063H13.3329C8.72861 35.0063 4.99609 31.2738 4.99609 26.6695V13.3306C4.99609 8.72629 8.72861 4.99377 13.3329 4.99377H21.6697" stroke="#454AF8" stroke-width="2" stroke-linecap="round" stroke-linejoin="round"/>
<path opacity="0.2" d="M24.2437 15.7549C26.5873 18.0992 26.5868 21.8994 24.2428 24.2432C21.8987 26.587 18.0985 26.587 15.7544 24.2432C13.4103 21.8994 13.4099 18.0992 15.7535 15.7549C16.8792 14.6288 18.4063 13.9961 19.9986 13.9961C21.5909 13.9961 23.118 14.6288 24.2437 15.7549" stroke="#454AF8" stroke-width="2" stroke-linecap="round" stroke-linejoin="round"/>
<path d="M28.3359 7.49481H36.6727" stroke="#454AF8" stroke-width="2" stroke-linecap="round" stroke-linejoin="round"/>
<path d="M32.5056 11.6632V3.32642" stroke="#454AF8" stroke-width="2" stroke-linecap="round" stroke-linejoin="round"/>
</svg>
