<svg width="15" height="16" viewBox="0 0 15 16" fill="none" xmlns="http://www.w3.org/2000/svg">
<path d="M14.5213 2.5098H11.1702V1.72549C11.1702 1.26786 10.9853 0.828977 10.6561 0.505384C10.3269 0.181792 9.88043 0 9.41489 0H5.58511C5.11957 0 4.67309 0.181792 4.34391 0.505384C4.01472 0.828977 3.82979 1.26786 3.82979 1.72549V2.5098H0.478723C0.351758 2.5098 0.229993 2.55938 0.140215 2.64764C0.0504367 2.73589 0 2.85558 0 2.98039C0 3.1052 0.0504367 3.2249 0.140215 3.31315C0.229993 3.4014 0.351758 3.45098 0.478723 3.45098H1.2766V14.902C1.2766 15.1932 1.39428 15.4725 1.60376 15.6784C1.81325 15.8843 2.09736 16 2.39362 16H12.6064C12.9026 16 13.1868 15.8843 13.3962 15.6784C13.6057 15.4725 13.7234 15.1932 13.7234 14.902V3.45098H14.5213C14.6482 3.45098 14.77 3.4014 14.8598 3.31315C14.9496 3.2249 15 3.1052 15 2.98039C15 2.85558 14.9496 2.73589 14.8598 2.64764C14.77 2.55938 14.6482 2.5098 14.5213 2.5098ZM4.78723 1.72549C4.78723 1.51748 4.8713 1.31798 5.02093 1.1709C5.17056 1.02381 5.3735 0.941177 5.58511 0.941177H9.41489C9.6265 0.941177 9.82944 1.02381 9.97907 1.1709C10.1287 1.31798 10.2128 1.51748 10.2128 1.72549V2.5098H4.78723V1.72549ZM12.766 14.902C12.766 14.9436 12.7491 14.9835 12.7192 15.0129C12.6893 15.0423 12.6487 15.0588 12.6064 15.0588H2.39362C2.3513 15.0588 2.31071 15.0423 2.28078 15.0129C2.25085 14.9835 2.23404 14.9436 2.23404 14.902V3.45098H12.766V14.902ZM6.06383 6.7451V11.7647C6.06383 11.8895 6.01339 12.0092 5.92361 12.0975C5.83384 12.1857 5.71207 12.2353 5.58511 12.2353C5.45814 12.2353 5.33638 12.1857 5.2466 12.0975C5.15682 12.0092 5.10638 11.8895 5.10638 11.7647V6.7451C5.10638 6.62029 5.15682 6.50059 5.2466 6.41234C5.33638 6.32409 5.45814 6.27451 5.58511 6.27451C5.71207 6.27451 5.83384 6.32409 5.92361 6.41234C6.01339 6.50059 6.06383 6.62029 6.06383 6.7451ZM9.89362 6.7451V11.7647C9.89362 11.8895 9.84318 12.0092 9.7534 12.0975C9.66362 12.1857 9.54186 12.2353 9.41489 12.2353C9.28793 12.2353 9.16616 12.1857 9.07638 12.0975C8.98661 12.0092 8.93617 11.8895 8.93617 11.7647V6.7451C8.93617 6.62029 8.98661 6.50059 9.07638 6.41234C9.16616 6.32409 9.28793 6.27451 9.41489 6.27451C9.54186 6.27451 9.66362 6.32409 9.7534 6.41234C9.84318 6.50059 9.89362 6.62029 9.89362 6.7451Z" fill="#454AF8"/>
</svg>
