<svg width="15" height="15" viewBox="0 0 15 15" fill="none" xmlns="http://www.w3.org/2000/svg">
<path d="M1.60714 3.21513H0.535714C0.393634 3.21513 0.257373 3.15869 0.156907 3.05823C0.0564411 2.95777 0 2.82152 0 2.67945C0 2.53738 0.0564411 2.40113 0.156907 2.30067C0.257373 2.20021 0.393634 2.14378 0.535714 2.14378H4.82143V0.535676C4.82143 0.393606 4.87787 0.257355 4.97834 0.156896C5.0788 0.0564372 5.21506 0 5.35714 0H9.64286C9.78494 0 9.9212 0.0564372 10.0217 0.156896C10.1221 0.257355 10.1786 0.393606 10.1786 0.535676V2.14378H14.4643C14.6064 2.14378 14.7426 2.20021 14.8431 2.30067C14.9436 2.40113 15 2.53738 15 2.67945C15 2.82152 14.9436 2.95777 14.8431 3.05823C14.7426 3.15869 14.6064 3.21513 14.4643 3.21513H13.3929V14.4643C13.3929 14.6064 13.3364 14.7426 13.236 14.8431C13.1355 14.9436 12.9992 15 12.8571 15H2.14286C2.00078 15 1.86452 14.9436 1.76405 14.8431C1.66358 14.7426 1.60714 14.6064 1.60714 14.4643V3.21513ZM9.10714 2.14378V1.07242H5.89286V2.14378H9.10714ZM2.67857 13.9286H12.3214V3.21513H2.67857V13.9286ZM5.89286 11.7859C5.75078 11.7859 5.61452 11.7295 5.51405 11.629C5.41358 11.5286 5.35714 11.3923 5.35714 11.2503V5.89351C5.35714 5.75144 5.41358 5.61519 5.51405 5.51473C5.61452 5.41427 5.75078 5.35783 5.89286 5.35783C6.03494 5.35783 6.1712 5.41427 6.27166 5.51473C6.37213 5.61519 6.42857 5.75144 6.42857 5.89351V11.2503C6.42857 11.3923 6.37213 11.5286 6.27166 11.629C6.1712 11.7295 6.03494 11.7859 5.89286 11.7859ZM9.10714 11.7859C8.96506 11.7859 8.8288 11.7295 8.72834 11.629C8.62787 11.5286 8.57143 11.3923 8.57143 11.2503V5.89351C8.57143 5.75144 8.62787 5.61519 8.72834 5.51473C8.8288 5.41427 8.96506 5.35783 9.10714 5.35783C9.24922 5.35783 9.38548 5.41427 9.48595 5.51473C9.58642 5.61519 9.64286 5.75144 9.64286 5.89351V11.2503C9.64286 11.3923 9.58642 11.5286 9.48595 11.629C9.38548 11.7295 9.24922 11.7859 9.10714 11.7859Z" fill="#323232"/>
</svg>
